<mxfile host="app.diagrams.net" modified="2022-09-02T06:48:50.167Z" agent="5.0 (Windows NT 10.0; Win64; x64) AppleWebKit/537.36 (KHTML, like Gecko) Chrome/104.0.0.0 Safari/537.36" etag="LsBe9iqG75O2ytjJIPJu" version="20.2.5" type="github">
  <diagram id="dbPlMSyZmyiy87wTLgsy" name="第 1 页">
    <mxGraphModel dx="1422" dy="796" grid="1" gridSize="10" guides="1" tooltips="1" connect="1" arrows="1" fold="1" page="1" pageScale="1" pageWidth="827" pageHeight="1169" math="0" shadow="0">
      <root>
        <mxCell id="0" />
        <mxCell id="1" parent="0" />
        <mxCell id="P90RqLLHq7_aSwwXnbhx-12" style="edgeStyle=orthogonalEdgeStyle;rounded=0;orthogonalLoop=1;jettySize=auto;html=1;entryX=0;entryY=0.5;entryDx=0;entryDy=0;" edge="1" parent="1" source="P90RqLLHq7_aSwwXnbhx-1" target="P90RqLLHq7_aSwwXnbhx-11">
          <mxGeometry relative="1" as="geometry" />
        </mxCell>
        <mxCell id="P90RqLLHq7_aSwwXnbhx-1" value="持续集成系统（PACE&amp;amp;CI）" style="rounded=1;whiteSpace=wrap;html=1;" vertex="1" parent="1">
          <mxGeometry x="250" y="343" width="120" height="60" as="geometry" />
        </mxCell>
        <mxCell id="P90RqLLHq7_aSwwXnbhx-3" value="安全工单系统（ITSM）" style="rounded=1;whiteSpace=wrap;html=1;" vertex="1" parent="1">
          <mxGeometry x="770" y="343" width="120" height="60" as="geometry" />
        </mxCell>
        <mxCell id="P90RqLLHq7_aSwwXnbhx-4" value="质量评分系统" style="rounded=1;whiteSpace=wrap;html=1;" vertex="1" parent="1">
          <mxGeometry x="490" y="180" width="120" height="60" as="geometry" />
        </mxCell>
        <mxCell id="P90RqLLHq7_aSwwXnbhx-9" style="edgeStyle=orthogonalEdgeStyle;rounded=0;orthogonalLoop=1;jettySize=auto;html=1;" edge="1" parent="1" source="P90RqLLHq7_aSwwXnbhx-7" target="P90RqLLHq7_aSwwXnbhx-1">
          <mxGeometry relative="1" as="geometry" />
        </mxCell>
        <mxCell id="P90RqLLHq7_aSwwXnbhx-7" value="GitLab" style="shape=hexagon;perimeter=hexagonPerimeter2;whiteSpace=wrap;html=1;fixedSize=1;" vertex="1" parent="1">
          <mxGeometry x="60" y="280" width="110" height="60" as="geometry" />
        </mxCell>
        <mxCell id="P90RqLLHq7_aSwwXnbhx-10" style="edgeStyle=orthogonalEdgeStyle;rounded=0;orthogonalLoop=1;jettySize=auto;html=1;entryX=0.5;entryY=1;entryDx=0;entryDy=0;" edge="1" parent="1" source="P90RqLLHq7_aSwwXnbhx-8" target="P90RqLLHq7_aSwwXnbhx-1">
          <mxGeometry relative="1" as="geometry" />
        </mxCell>
        <mxCell id="P90RqLLHq7_aSwwXnbhx-8" value="M&lt;span style=&quot;color: rgb(51, 51, 51); font-family: Arial, sans-serif; font-size: 13px; text-align: start; background-color: rgb(255, 255, 255);&quot;&gt;aterial-Package&lt;/span&gt;" style="shape=hexagon;perimeter=hexagonPerimeter2;whiteSpace=wrap;html=1;fixedSize=1;" vertex="1" parent="1">
          <mxGeometry x="60" y="400" width="110" height="60" as="geometry" />
        </mxCell>
        <mxCell id="P90RqLLHq7_aSwwXnbhx-17" style="edgeStyle=orthogonalEdgeStyle;rounded=0;orthogonalLoop=1;jettySize=auto;html=1;" edge="1" parent="1" source="P90RqLLHq7_aSwwXnbhx-11">
          <mxGeometry relative="1" as="geometry">
            <mxPoint x="310" y="410" as="targetPoint" />
            <Array as="points">
              <mxPoint x="530" y="430" />
              <mxPoint x="310" y="430" />
            </Array>
          </mxGeometry>
        </mxCell>
        <mxCell id="P90RqLLHq7_aSwwXnbhx-11" value="SourceCheck" style="rounded=1;whiteSpace=wrap;html=1;" vertex="1" parent="1">
          <mxGeometry x="470" y="343" width="120" height="60" as="geometry" />
        </mxCell>
        <mxCell id="P90RqLLHq7_aSwwXnbhx-14" value="1、构建" style="text;html=1;strokeColor=none;fillColor=none;align=center;verticalAlign=middle;whiteSpace=wrap;rounded=0;" vertex="1" parent="1">
          <mxGeometry x="190" y="358" width="60" height="30" as="geometry" />
        </mxCell>
        <mxCell id="P90RqLLHq7_aSwwXnbhx-15" value="2、触发" style="text;html=1;strokeColor=none;fillColor=none;align=center;verticalAlign=middle;whiteSpace=wrap;rounded=0;" vertex="1" parent="1">
          <mxGeometry x="388" y="345" width="60" height="30" as="geometry" />
        </mxCell>
        <mxCell id="P90RqLLHq7_aSwwXnbhx-16" value="0、策略规则配置" style="text;html=1;strokeColor=none;fillColor=none;align=center;verticalAlign=middle;whiteSpace=wrap;rounded=0;" vertex="1" parent="1">
          <mxGeometry x="475" y="310" width="110" height="30" as="geometry" />
        </mxCell>
        <mxCell id="P90RqLLHq7_aSwwXnbhx-18" value="3、接口返回（主动和被动）" style="text;html=1;strokeColor=none;fillColor=none;align=center;verticalAlign=middle;whiteSpace=wrap;rounded=0;" vertex="1" parent="1">
          <mxGeometry x="340" y="402" width="172" height="30" as="geometry" />
        </mxCell>
        <mxCell id="P90RqLLHq7_aSwwXnbhx-19" value="研发人员" style="shape=umlActor;verticalLabelPosition=bottom;verticalAlign=top;html=1;outlineConnect=0;" vertex="1" parent="1">
          <mxGeometry x="515" y="630" width="30" height="60" as="geometry" />
        </mxCell>
        <mxCell id="P90RqLLHq7_aSwwXnbhx-21" value="" style="endArrow=classic;html=1;rounded=0;" edge="1" parent="1">
          <mxGeometry width="50" height="50" relative="1" as="geometry">
            <mxPoint x="500" y="660" as="sourcePoint" />
            <mxPoint x="330" y="440" as="targetPoint" />
          </mxGeometry>
        </mxCell>
        <mxCell id="P90RqLLHq7_aSwwXnbhx-22" value="1、查看平台结果（只需要关键信息，如高危组件，如何修复）&lt;br&gt;2、通过平台链接跳转SourceCheck查看信息" style="text;html=1;strokeColor=none;fillColor=none;align=center;verticalAlign=middle;whiteSpace=wrap;rounded=0;" vertex="1" parent="1">
          <mxGeometry x="210" y="550" width="204" height="65" as="geometry" />
        </mxCell>
      </root>
    </mxGraphModel>
  </diagram>
</mxfile>
